<?xml version="1.0" encoding="utf-8"?>
<!-- Generator: Adobe Illustrator 25.3.0, SVG Export Plug-In . SVG Version: 6.00 Build 0)  -->
<svg version="1.1" id="Capa_1" xmlns="http://www.w3.org/2000/svg" xmlns:xlink="http://www.w3.org/1999/xlink" x="0px" y="0px"
	 viewBox="0 0 503.5 503.5" style="enable-background:new 0 0 503.5 503.5;" xml:space="preserve">
<style type="text/css">
	.st0{fill:#172737;}
	.st1{fill:#05D3AD;}
	.st2{fill:none;stroke:#05D3AD;stroke-width:10;stroke-linecap:round;stroke-miterlimit:10;}
	.st3{fill:none;stroke:#172737;stroke-width:10;stroke-linecap:round;stroke-miterlimit:10;}
</style>
<g>
	<g>
		<path class="st0" d="M251.8,503.5C112.9,503.5,0,390.6,0,251.8C0,112.9,112.9,0,251.8,0s251.8,112.9,251.8,251.8
			C503.5,390.6,390.6,503.5,251.8,503.5z M251.8,13.9c-131.2,0-237.9,106.7-237.9,237.9s106.7,237.9,237.9,237.9
			s237.9-106.7,237.9-237.9S382.9,13.9,251.8,13.9z"/>
	</g>
	<g>
		<path class="st0" d="M251.9,477.8h-0.1c-0.4,0-0.9,0-1.3,0c-1.9,0-3.6-0.7-4.9-2.1c-1.3-1.3-2-3.1-2-4.9c0-3.8,3.1-6.9,6.9-6.9
			h0.1c0.4,0,0.8,0,1.2,0h0.1c3.8,0,6.9,3.1,6.9,6.9v0C258.8,474.7,255.7,477.8,251.9,477.8L251.9,477.8z M307.2,470.7
			c-3.2,0-5.9-2.1-6.7-5.2c-0.5-1.8-0.2-3.7,0.7-5.3c0.9-1.6,2.4-2.7,4.2-3.2c0.3-0.1,0.6-0.2,0.9-0.2l0.4-0.1
			c0.6-0.2,1.2-0.2,1.8-0.2c3.1,0,5.9,2.1,6.7,5.1c0.2,0.6,0.2,1.2,0.2,1.8c0,3.1-2.1,5.8-5.1,6.7l0,0c-0.1,0-0.1,0-0.2,0
			c-0.4,0.1-0.8,0.2-1.2,0.3C308.4,470.7,307.8,470.7,307.2,470.7z M195.2,470.4c-0.6,0-1.2-0.1-1.8-0.2c-0.5-0.1-0.9-0.2-1.4-0.4
			c-3.7-1-5.9-4.8-4.9-8.5c0.8-3,3.6-5.1,6.7-5.1c0.6,0,1.2,0.1,1.8,0.2c0.4,0.1,0.9,0.2,1.3,0.3c3,0.8,5.1,3.6,5.1,6.7
			c0,0.6-0.1,1.2-0.2,1.8C201.1,468.3,198.3,470.4,195.2,470.4z M360.2,449.2c-2.5,0-4.8-1.3-6-3.5c-0.9-1.6-1.2-3.5-0.7-5.3
			c0.5-1.8,1.7-3.3,3.3-4.2l1.2-0.7c1.1-0.6,2.3-0.9,3.5-0.9c2.5,0,4.8,1.3,6,3.5c0.6,1.1,0.9,2.2,0.9,3.4c0,2.5-1.3,4.8-3.5,6
			c-0.4,0.2-0.8,0.5-1.2,0.7C362.6,448.8,361.4,449.2,360.2,449.2z M142.3,448.6c-1.2,0-2.4-0.3-3.5-0.9l-0.1-0.1
			c-0.4-0.2-0.8-0.4-1.1-0.7c-3.3-1.9-4.4-6.2-2.5-9.5c1.2-2.1,3.5-3.4,6-3.4c1.2,0,2.4,0.3,3.5,0.9l1.2,0.7c2.1,1.2,3.5,3.5,3.5,6
			c0,1.2-0.3,2.4-0.9,3.4C147.1,447.3,144.8,448.6,142.3,448.6z M405.8,414.6c-1.9,0-3.6-0.7-4.9-2.1c-1.3-1.3-2-3.1-2-4.9
			c0-1.9,0.7-3.6,2.1-4.9c0.3-0.3,0.6-0.6,1-1c1.3-1.3,3.1-2,4.9-2c1.9,0,3.6,0.7,4.9,2c1.3,1.3,2,3.1,2,4.9c0,1.8-0.7,3.5-1.9,4.8
			l0,0l-0.1,0.1c0,0-0.1,0.1-0.1,0.1c-0.2,0.2-0.3,0.3-0.5,0.5c-0.1,0.1-0.3,0.3-0.4,0.4C409.3,413.9,407.6,414.6,405.8,414.6z
			 M96.9,413.8c-1.8,0-3.6-0.7-4.9-2l-0.2-0.2c-0.3-0.3-0.5-0.5-0.8-0.8c-1.3-1.3-2-3.1-2-4.9c0-1.9,0.7-3.6,2.1-4.9
			c1.3-1.3,3-2,4.9-2c1.9,0,3.6,0.7,4.9,2.1c0.3,0.3,0.6,0.6,1,1c1.3,1.3,2,3.1,2,4.9c0,1.8-0.7,3.6-2,4.9
			C100.5,413,98.8,413.8,96.9,413.8z M440.9,369.4c-1.2,0-2.4-0.3-3.5-0.9c-1.6-0.9-2.7-2.5-3.2-4.2c-0.5-1.8-0.2-3.7,0.7-5.3
			c0.2-0.4,0.5-0.8,0.7-1.2c1.2-2.1,3.5-3.5,6-3.5c1.2,0,2.4,0.3,3.5,0.9c2.1,1.2,3.5,3.6,3.5,6c0,1.2-0.3,2.4-0.9,3.4
			c-0.2,0.4-0.5,0.8-0.7,1.2C445.6,368.1,443.3,369.4,440.9,369.4z M62,368.4c-2.5,0-4.7-1.3-6-3.4l0,0c0-0.1-0.1-0.1-0.1-0.2
			c-0.2-0.4-0.4-0.7-0.6-1.1c-1.9-3.3-0.7-7.6,2.6-9.5c1-0.6,2.2-0.9,3.4-0.9c2.5,0,4.8,1.3,6,3.5c0.2,0.4,0.4,0.8,0.7,1.2l0.1,0.1
			l0,0c0.6,1,0.9,2.2,0.9,3.3c0,2.5-1.3,4.8-3.5,6C64.5,368.1,63.3,368.4,62,368.4z M463.1,316.8c-0.6,0-1.2-0.1-1.8-0.2
			c-1.8-0.5-3.3-1.7-4.2-3.3c-0.9-1.6-1.2-3.5-0.7-5.3c0.1-0.4,0.2-0.9,0.4-1.3c0.8-3,3.6-5.1,6.7-5.1c0.6,0,1.2,0.1,1.8,0.2
			c3,0.8,5.1,3.6,5.1,6.7c0,0.6-0.1,1.2-0.2,1.8c-0.1,0.4-0.2,0.9-0.3,1.3l0,0.1C469,314.6,466.2,316.8,463.1,316.8z M40.1,315.6
			c-3.1,0-5.9-2.1-6.7-5.1c-0.1-0.5-0.2-0.9-0.4-1.4c-0.5-1.8-0.2-3.7,0.7-5.3c0.9-1.6,2.4-2.7,4.2-3.2c0.6-0.2,1.2-0.2,1.8-0.2
			c3.1,0,5.9,2.1,6.7,5.2c0.1,0.4,0.2,0.9,0.3,1.3c0.2,0.6,0.2,1.2,0.2,1.8c0,3.1-2.1,5.9-5.1,6.7C41.3,315.5,40.7,315.6,40.1,315.6
			z M470.9,260.1L470.9,260.1L470.9,260.1c-1.9,0-3.6-0.7-4.9-2.1c-1.3-1.3-2-3.1-2-4.9v-0.2c0-0.4,0-0.7,0-1.1c0-0.1,0-0.2,0-0.3
			v-0.2l0,0c0-1.8,0.7-3.5,2-4.8c1.3-1.3,3-2,4.9-2c3.8,0,6.9,3.1,6.9,6.9v0.5c0,0.5,0,1,0,1.4C477.8,257,474.7,260.1,470.9,260.1z
			 M32.6,258.9L32.6,258.9c-3.8,0-6.9-3.1-6.9-6.9v-0.2c0-0.4,0-0.8,0-1.2c0-3.8,3.1-6.9,6.9-6.9h0c3.8,0,6.9,3.1,6.9,7
			c0,0.2,0,0.4,0,0.6c0,0.2,0,0.4,0,0.6v0.2c0,1.8-0.7,3.6-2,4.9C36.2,258.2,34.5,258.9,32.6,258.9z M463.7,202.9
			c-3.1,0-5.9-2.1-6.7-5.2l0-0.2c-0.1-0.4-0.2-0.7-0.3-1.1l0-0.1l0,0c-0.2-0.6-0.2-1.2-0.2-1.7c0-3.1,2.1-5.9,5.1-6.7
			c0.6-0.2,1.2-0.2,1.8-0.2c3.1,0,5.9,2.1,6.7,5.1c0.1,0.5,0.2,0.9,0.4,1.4c0.5,1.8,0.2,3.7-0.7,5.3c-0.9,1.6-2.4,2.7-4.2,3.2
			C464.9,202.8,464.3,202.9,463.7,202.9z M40,202.2c-0.6,0-1.2-0.1-1.8-0.2c-3-0.8-5.1-3.6-5.1-6.7c0-0.6,0.1-1.2,0.2-1.8
			c0.1-0.4,0.2-0.9,0.3-1.3l0-0.1c0.8-3,3.6-5.1,6.7-5.1c0.6,0,1.2,0.1,1.8,0.2c3.7,1,5.9,4.8,4.9,8.5c-0.1,0.4-0.2,0.9-0.3,1.3
			C45.9,200.1,43.1,202.2,40,202.2z M442.1,150c-2.5,0-4.8-1.3-6-3.5c-0.2-0.4-0.4-0.8-0.7-1.2c-0.6-1.1-0.9-2.2-0.9-3.5
			c0-2.5,1.3-4.8,3.5-6c1.1-0.6,2.3-0.9,3.5-0.9c2.5,0,4.8,1.3,6,3.5c0.2,0.4,0.5,0.8,0.7,1.2c0.9,1.6,1.2,3.5,0.7,5.3
			c-0.5,1.8-1.6,3.3-3.2,4.2C444.5,149.6,443.3,150,442.1,150z M61.8,149.3c-1.2,0-2.4-0.3-3.5-0.9c-2.1-1.2-3.5-3.6-3.5-6
			c0-1.2,0.3-2.4,0.9-3.5c0.2-0.4,0.5-0.8,0.7-1.2c1.2-2.1,3.5-3.4,6-3.4c1.2,0,2.4,0.3,3.5,1c3.3,1.9,4.4,6.2,2.5,9.5l-0.7,1.2
			C66.6,148,64.3,149.3,61.8,149.3z M407.4,104.4c-1.9,0-3.6-0.7-4.9-2.1c-0.3-0.3-0.6-0.6-1-1l0,0c-1.3-1.3-2-3-2-4.9
			c0-1.9,0.7-3.6,2-4.9c1.3-1.3,3.1-2,4.9-2c1.8,0,3.5,0.7,4.8,1.9l0,0l0.1,0.1c0,0,0.1,0.1,0.1,0.1c0.3,0.3,0.6,0.6,0.9,0.9
			c1.3,1.3,2,3.1,2,4.9c0,1.9-0.7,3.6-2.1,4.9C411,103.7,409.2,104.4,407.4,104.4z M96.6,103.9L96.6,103.9c-1.9,0-3.6-0.7-4.9-2
			c-1.3-1.3-2-3.1-2-4.9c0-1.8,0.7-3.6,2-4.9l0.2-0.2c0.2-0.2,0.5-0.5,0.8-0.8c1.3-1.3,3.1-2,4.9-2c1.9,0,3.6,0.7,4.9,2.1
			c2.7,2.7,2.7,7.1-0.1,9.8c-0.3,0.3-0.6,0.6-1,1C100.2,103.2,98.5,103.9,96.6,103.9z M362.2,69.4c-1.2,0-2.4-0.3-3.5-0.9
			c-0.3-0.2-0.5-0.3-0.8-0.5l-0.4-0.2c-2.1-1.2-3.5-3.5-3.5-6c0-1.2,0.3-2.4,0.9-3.5c1.2-2.1,3.5-3.5,6-3.5c1.2,0,2.4,0.3,3.5,0.9
			c0.4,0.2,0.8,0.5,1.3,0.7c1.6,0.9,2.7,2.4,3.2,4.2c0.5,1.8,0.2,3.7-0.7,5.3C367,68.1,364.7,69.4,362.2,69.4z M141.9,69
			c-2.5,0-4.8-1.3-6-3.5c-0.6-1-0.9-2.2-0.9-3.4c0-2.5,1.3-4.8,3.5-6c0.4-0.2,0.8-0.5,1.2-0.7c1-0.6,2.2-0.9,3.4-0.9
			c2.5,0,4.8,1.3,6,3.5c0.9,1.6,1.2,3.5,0.7,5.3c-0.5,1.8-1.6,3.3-3.2,4.2c-0.4,0.2-0.8,0.4-1.2,0.7C144.3,68.7,143.1,69,141.9,69z
			 M309.5,47.2c-0.6,0-1.2-0.1-1.8-0.2l-0.2-0.1c-0.4-0.1-0.7-0.2-1.1-0.3l-0.5-0.1h0.1c-2.8-0.9-4.7-3.6-4.7-6.5
			c0-0.6,0.1-1.2,0.2-1.8c0.8-3,3.6-5.2,6.7-5.2c0.6,0,1.2,0.1,1.8,0.2l0.2,0.1c0.4,0.1,0.8,0.2,1.2,0.3c1.8,0.5,3.3,1.6,4.2,3.2
			c0.9,1.6,1.2,3.5,0.7,5.3C315.3,45.1,312.6,47.2,309.5,47.2z M194.7,47.1c-3.1,0-5.9-2.1-6.7-5.1c-0.2-0.6-0.2-1.2-0.2-1.8
			c0-3.1,2.1-5.9,5.1-6.7c0.5-0.1,0.9-0.2,1.4-0.4c0.6-0.2,1.2-0.2,1.8-0.2c3.1,0,5.9,2.1,6.7,5.2c1,3.7-1.2,7.5-5,8.5
			c-0.3,0.1-0.7,0.2-1,0.2l-0.3,0.1C195.9,47,195.3,47.1,194.7,47.1z M252.8,39.6L252.8,39.6c-0.4,0-0.7,0-1,0h-0.3
			c-3.8,0-6.9-3.1-6.9-6.9c0-1.9,0.7-3.6,2-4.9c1.3-1.3,3.1-2,4.9-2h0.4c0.4,0,0.7,0,1.1,0c1.9,0,3.6,0.7,4.9,2.1
			c1.3,1.3,2,3.1,2,4.9C259.7,36.5,256.6,39.6,252.8,39.6z"/>
	</g>
	<g>
		<path class="st1" d="M224.8,476.2c-0.3,0-0.6,0-0.9-0.1l-0.5-0.1c-0.3,0-0.6-0.1-0.9-0.1c-3.8-0.5-6.5-4-6-7.8
			c0.4-3.5,3.4-6,6.9-6c0.3,0,0.6,0,0.9,0.1c0.4,0.1,0.9,0.1,1.3,0.2c3.5,0.4,6.1,3.4,6.1,6.8c0,0.3,0,0.6-0.1,0.9
			C231.2,473.6,228.3,476.2,224.8,476.2z M280.6,475.9c-3.5,0-6.4-2.6-6.9-6c-0.2-1.8,0.2-3.6,1.4-5.1c1.1-1.5,2.8-2.4,4.6-2.7
			c0.4-0.1,0.8-0.1,1.2-0.2l0.1,0c3.8-0.5,7.3,2.2,7.8,5.9c0.5,3.5-1.7,6.8-5.1,7.7c-0.3,0.1-0.5,0.1-0.8,0.2c0,0-0.1,0-0.1,0
			c-0.4,0.1-0.9,0.1-1.3,0.2C281.2,475.9,280.9,475.9,280.6,475.9z M169.4,461.8c-0.9,0-1.8-0.2-2.6-0.5c-0.4-0.2-0.9-0.4-1.3-0.6
			c-1.7-0.7-3.1-2-3.8-3.7c-0.7-1.7-0.7-3.6,0-5.3c1.1-2.6,3.6-4.3,6.4-4.3c0.9,0,1.8,0.2,2.6,0.5c0.4,0.2,0.8,0.3,1.3,0.5
			c2.6,1.1,4.3,3.6,4.3,6.4c0,0.9-0.2,1.8-0.5,2.6C174.8,460.1,172.3,461.8,169.4,461.8z M335.8,461.1c-2.8,0-5.3-1.7-6.4-4.3
			c-1.5-3.5,0.2-7.6,3.8-9.1c0.3-0.1,0.5-0.2,0.8-0.3l0.5-0.2c0.9-0.4,1.8-0.5,2.7-0.5c2.8,0,5.3,1.7,6.4,4.2
			c0.4,0.9,0.6,1.8,0.6,2.7c0,2.8-1.7,5.3-4.2,6.4l0,0c-0.1,0-0.1,0-0.2,0.1c-0.4,0.2-0.8,0.3-1.2,0.5
			C337.6,460.9,336.8,461.1,335.8,461.1z M119.7,433.6L119.7,433.6c-1.5,0-3-0.5-4.2-1.4l0,0c-0.4-0.3-0.7-0.6-1.1-0.8
			c-3-2.3-3.6-6.7-1.3-9.7c1.3-1.7,3.3-2.7,5.5-2.7c1.5,0,3,0.5,4.2,1.4c0.3,0.2,0.6,0.4,0.9,0.7l0.4,0.3l0,0
			c1.7,1.3,2.6,3.3,2.6,5.4c0,1.5-0.5,2.9-1.4,4.1C123.9,432.5,121.9,433.6,119.7,433.6z M385.3,432.5c-2.2,0-4.2-1-5.5-2.7
			c-2.3-3-1.8-7.4,1.3-9.7l0.2-0.2c0.3-0.2,0.6-0.5,0.9-0.7c1.2-1,2.7-1.5,4.3-1.5c2.2,0,4.2,1,5.5,2.7c1,1.2,1.5,2.7,1.5,4.3
			c0,2.1-1,4.1-2.7,5.5c-0.4,0.3-0.8,0.6-1.1,0.9C388.3,432,386.9,432.5,385.3,432.5z M78.9,393.4c-2.1,0-4.1-1-5.5-2.7
			c-0.3-0.4-0.6-0.8-0.9-1.1c-2.3-3-1.8-7.4,1.3-9.7c1.2-0.9,2.7-1.4,4.2-1.4c2.2,0,4.2,1,5.5,2.7c0.1,0.2,0.3,0.3,0.4,0.5
			c0.1,0.2,0.2,0.3,0.3,0.4l0.1,0.1c1,1.2,1.5,2.7,1.5,4.3c0,2.1-1,4.1-2.7,5.5C81.9,392.9,80.5,393.4,78.9,393.4z M425.7,391.9
			c-1.5,0-3-0.5-4.2-1.4c-3-2.3-3.6-6.7-1.3-9.7c0.3-0.4,0.6-0.7,0.8-1.1c1.3-1.7,3.3-2.8,5.5-2.8c1.5,0,3,0.5,4.2,1.4
			c1.8,1.3,2.8,3.4,2.7,5.6c0,1.5-0.5,2.9-1.4,4.1l-0.3,0.5c-0.2,0.2-0.3,0.5-0.5,0.7C429.9,390.9,427.9,391.9,425.7,391.9z
			 M49.9,344.1L49.9,344.1c-2.8,0-5.3-1.7-6.4-4.2c-0.2-0.4-0.4-0.9-0.6-1.3c-1.5-3.5,0.2-7.6,3.7-9.1c0.8-0.4,1.7-0.5,2.7-0.5
			c2.8,0,5.3,1.7,6.4,4.3c0.2,0.4,0.3,0.8,0.5,1.2v0c0.4,0.9,0.6,1.8,0.6,2.7c0,2.8-1.7,5.3-4.2,6.4C51.8,344,50.9,344.1,49.9,344.1
			z M454.3,342.4c-0.9,0-1.8-0.2-2.6-0.5c-3.5-1.5-5.2-5.5-3.7-9.1c0.2-0.4,0.3-0.8,0.5-1.3c1.1-2.6,3.6-4.3,6.4-4.3
			c0.9,0,1.8,0.2,2.6,0.5c2.6,1.1,4.3,3.6,4.3,6.4c0,0.9-0.2,1.8-0.5,2.6c-0.2,0.4-0.3,0.8-0.5,1.2l0,0.1
			C459.6,340.7,457.1,342.4,454.3,342.4z M34.7,289c-3.4,0-6.4-2.6-6.9-6l0-0.2c0-0.2-0.1-0.4-0.1-0.6c0-0.2-0.1-0.4-0.1-0.6
			c-0.2-1.8,0.2-3.6,1.4-5.1c1.1-1.5,2.8-2.4,4.6-2.6c0.3,0,0.6-0.1,0.9-0.1c3.5,0,6.4,2.6,6.9,6c0,0.2,0.1,0.4,0.1,0.6
			c0,0.2,0,0.4,0.1,0.6l0,0.2c0,0.3,0.1,0.7,0.1,1c0,3.4-2.6,6.4-6,6.9C35.4,289,35.1,289,34.7,289z M469.1,287.1
			c-0.3,0-0.6,0-0.9-0.1c-1.8-0.2-3.5-1.2-4.6-2.6c-1.1-1.5-1.6-3.3-1.4-5.1c0.1-0.4,0.1-0.9,0.2-1.3c0.5-3.8,4-6.5,7.7-6
			c3.5,0.4,6.1,3.4,6.1,6.9c0,0.3,0,0.6-0.1,0.9c-0.1,0.5-0.1,0.9-0.2,1.4C475.5,284.5,472.6,287.1,469.1,287.1z M34.2,231.8
			L34.2,231.8L34.2,231.8c-0.3,0-0.6,0-0.9,0c-3.5-0.4-6.1-3.4-6.1-6.9c0-0.3,0-0.6,0.1-0.9l0.2-1.4c0.4-3.4,3.4-6,6.9-6
			c0.3,0,0.6,0,0.9,0.1c1.8,0.2,3.5,1.2,4.6,2.6c1.1,1.5,1.6,3.3,1.4,5.1l0,0.2c0,0.4-0.1,0.8-0.2,1.2
			C40.7,229.2,37.7,231.8,34.2,231.8z M469,229.9c-3.5,0-6.4-2.6-6.9-6c-0.1-0.4-0.1-0.9-0.2-1.3l0-0.2c0-0.1,0-0.1,0-0.2
			c0-0.3-0.1-0.7-0.1-1c0-3.4,2.6-6.4,6-6.9c0.3,0,0.7-0.1,1-0.1c3.4,0,6.4,2.6,6.9,6l0,0.2c0,0.1,0,0.2,0,0.2
			c0.1,0.5,0.1,0.9,0.2,1.4c0.5,3.8-2.2,7.3-6,7.8C469.6,229.9,469.3,229.9,469,229.9z M48.6,176.5L48.6,176.5L48.6,176.5
			c-0.9,0-1.8-0.2-2.6-0.5c-2.6-1.1-4.3-3.6-4.3-6.4c0-0.9,0.2-1.8,0.5-2.6l0.1-0.2c0.2-0.4,0.3-0.8,0.5-1.2
			c1.1-2.6,3.6-4.3,6.4-4.3c0.9,0,1.8,0.2,2.6,0.5c1.7,0.7,3.1,2.1,3.8,3.8c0.7,1.7,0.7,3.6,0,5.3c-0.2,0.4-0.3,0.8-0.5,1.2
			C54,174.8,51.4,176.5,48.6,176.5z M454.1,174.3c-2.8,0-5.3-1.7-6.4-4.3c-0.2-0.4-0.3-0.8-0.5-1.2c-0.4-0.9-0.6-1.8-0.6-2.7
			c0-2.8,1.7-5.3,4.2-6.4c0.9-0.4,1.8-0.6,2.7-0.6c2.8,0,5.3,1.7,6.4,4.2l0,0.1c0.2,0.4,0.4,0.8,0.5,1.3c1.5,3.5-0.2,7.6-3.7,9.1
			C455.9,174.2,455,174.3,454.1,174.3z M76.8,126.7c-1.5,0-3-0.5-4.2-1.4c-1.8-1.3-2.8-3.4-2.8-5.6c0-1.5,0.5-2.9,1.4-4.1l0.3-0.4
			c0.2-0.2,0.4-0.5,0.6-0.7c1.3-1.7,3.3-2.7,5.5-2.7c1.5,0,3,0.5,4.2,1.4c3,2.3,3.6,6.7,1.3,9.7c-0.2,0.2-0.4,0.5-0.6,0.8l-0.2,0.3
			C81,125.7,79,126.7,76.8,126.7z M425.4,124.9c-2.2,0-4.2-1-5.5-2.7l0,0c-0.3-0.3-0.5-0.7-0.8-1.1c-1-1.2-1.5-2.7-1.5-4.3
			c0-2.1,1-4.1,2.7-5.5c1.2-1,2.7-1.5,4.3-1.5c2.1,0,4.1,1,5.5,2.7c0.3,0.4,0.6,0.8,0.9,1.1c2.3,3,1.8,7.4-1.2,9.7
			C428.3,124.4,426.9,124.9,425.4,124.9z M116.9,85.9c-2.2,0-4.1-1-5.5-2.7c-1-1.2-1.5-2.7-1.5-4.3c0-2.1,1-4.1,2.7-5.5
			c0.4-0.3,0.8-0.6,1.1-0.9c1.2-0.9,2.7-1.5,4.2-1.5c2.2,0,4.2,1,5.5,2.7c1.1,1.5,1.6,3.3,1.4,5.1c-0.2,1.8-1.2,3.5-2.6,4.6
			c-0.3,0.3-0.7,0.6-1.1,0.8C120,85.4,118.5,85.9,116.9,85.9z M384.8,84.6c-1.5,0-3-0.5-4.2-1.4l-0.3-0.2c-0.3-0.2-0.5-0.4-0.8-0.6
			l-0.2-0.1h0c-1.7-1.3-2.6-3.3-2.6-5.4c0-1.5,0.5-2.9,1.4-4.1c1.3-1.7,3.3-2.8,5.5-2.8c1.5,0,3,0.5,4.2,1.4
			c0.4,0.3,0.8,0.6,1.2,0.9c3,2.3,3.6,6.7,1.3,9.7C389,83.6,387,84.6,384.8,84.6z M166.2,56.9c-2.8,0-5.3-1.7-6.4-4.2
			c-0.4-0.9-0.6-1.8-0.6-2.7c0-2.8,1.7-5.3,4.2-6.4c0.4-0.2,0.7-0.3,1.1-0.5l0.2-0.1c0.9-0.4,1.7-0.5,2.7-0.5c2.8,0,5.3,1.7,6.4,4.3
			c0.7,1.7,0.7,3.6,0,5.3c-0.7,1.7-2,3.1-3.8,3.8c-0.4,0.2-0.8,0.3-1.2,0.5C168,56.7,167.1,56.9,166.2,56.9z M335.2,56L335.2,56
			L335.2,56c-0.9,0-1.8-0.2-2.6-0.5c-0.4-0.2-0.8-0.3-1.2-0.5c-2.6-1.1-4.3-3.6-4.3-6.4c0-0.9,0.2-1.8,0.5-2.6
			c1.1-2.6,3.6-4.3,6.4-4.3c0.9,0,1.8,0.2,2.6,0.5c0.5,0.2,0.9,0.4,1.3,0.5c3.5,1.5,5.2,5.5,3.8,9.1C340.5,54.3,338,56,335.2,56z
			 M221.3,41.7c-3.4,0-6.4-2.6-6.9-6c0-0.3-0.1-0.6-0.1-1c0-3.4,2.5-6.3,5.8-6.8v0l0.2,0c0.1,0,0.1,0,0.2,0c0.1,0,0.1,0,0.1,0
			c0.4-0.1,0.7-0.1,1.1-0.2c0.3,0,0.6-0.1,0.9-0.1c3.5,0,6.4,2.6,6.9,6c0.2,1.8-0.2,3.7-1.4,5.1c-1.1,1.5-2.7,2.4-4.6,2.7l-1.1,0.1
			c0,0-0.1,0-0.1,0c0,0-0.1,0-0.1,0C222,41.7,221.7,41.7,221.3,41.7z M279.9,41.3c-0.3,0-0.6,0-0.9-0.1c-0.4-0.1-0.9-0.1-1.3-0.2
			c-3.5-0.4-6.1-3.4-6.1-6.9c0-0.3,0-0.6,0-0.9c0.4-3.5,3.4-6.1,6.9-6.1c0.3,0,0.6,0,0.8,0.1c0.5,0.1,1,0.1,1.4,0.2
			c3.8,0.5,6.5,4,6,7.8C286.4,38.7,283.4,41.3,279.9,41.3z"/>
	</g>
	<g>
		<g>
			<path class="st1" d="M251.8,102.1c-3.8,0-6.9-3.1-6.9-6.9V71.4c0-3.8,3.1-6.9,6.9-6.9s6.9,3.1,6.9,6.9v23.7
				C258.7,99,255.6,102.1,251.8,102.1z"/>
		</g>
		<g>
			<path class="st0" d="M173.4,123c-2.4,0-4.7-1.2-6-3.5l-11.8-20.5c-1.9-3.3-0.8-7.6,2.5-9.5c3.3-1.9,7.6-0.8,9.5,2.5l11.8,20.5
				c1.9,3.3,0.8,7.6-2.5,9.5C175.8,122.7,174.6,123,173.4,123z"/>
		</g>
		<g>
			<path class="st1" d="M116.1,180.4c-1.2,0-2.4-0.3-3.5-0.9l-20.5-11.8c-3.3-1.9-4.5-6.2-2.5-9.5c1.9-3.3,6.2-4.5,9.5-2.5
				l20.5,11.8c3.3,1.9,4.5,6.2,2.5,9.5C120.8,179.1,118.5,180.4,116.1,180.4z"/>
		</g>
		<g>
			<path class="st0" d="M95.1,258.7H71.4c-3.8,0-6.9-3.1-6.9-6.9s3.1-6.9,6.9-6.9h23.7c3.8,0,6.9,3.1,6.9,6.9S99,258.7,95.1,258.7z"
				/>
		</g>
		<g>
			<path class="st1" d="M95.6,348.9c-2.4,0-4.7-1.2-6-3.5c-1.9-3.3-0.8-7.6,2.5-9.5l20.5-11.8c3.3-1.9,7.6-0.8,9.5,2.5
				c1.9,3.3,0.8,7.6-2.5,9.5l-20.5,11.8C98,348.6,96.8,348.9,95.6,348.9z"/>
		</g>
		<g>
			<path class="st0" d="M161.6,414.9c-1.2,0-2.4-0.3-3.5-0.9c-3.3-1.9-4.5-6.2-2.5-9.5l11.8-20.5c1.9-3.3,6.2-4.5,9.5-2.5
				c3.3,1.9,4.5,6.2,2.5,9.5l-11.8,20.5C166.3,413.6,164,414.9,161.6,414.9z"/>
		</g>
		<g>
			<path class="st1" d="M251.8,439c-3.8,0-6.9-3.1-6.9-6.9v-23.7c0-3.8,3.1-6.9,6.9-6.9s6.9,3.1,6.9,6.9v23.7
				C258.7,435.9,255.6,439,251.8,439z"/>
		</g>
		<g>
			<path class="st0" d="M341.9,414.9c-2.4,0-4.7-1.2-6-3.5l-11.8-20.5c-1.9-3.3-0.8-7.6,2.5-9.5c3.3-1.9,7.6-0.8,9.5,2.5l11.8,20.5
				c1.9,3.3,0.8,7.6-2.5,9.5C344.3,414.6,343.1,414.9,341.9,414.9z"/>
		</g>
		<g>
			<path class="st1" d="M407.9,348.9c-1.2,0-2.4-0.3-3.5-0.9l-20.5-11.8c-3.3-1.9-4.5-6.2-2.5-9.5c1.9-3.3,6.2-4.5,9.5-2.5
				l20.5,11.8c3.3,1.9,4.5,6.2,2.5,9.5C412.6,347.6,410.3,348.9,407.9,348.9z"/>
		</g>
		<g>
			<path class="st0" d="M432.1,258.7h-23.7c-3.8,0-6.9-3.1-6.9-6.9s3.1-6.9,6.9-6.9h23.7c3.8,0,6.9,3.1,6.9,6.9
				S435.9,258.7,432.1,258.7z"/>
		</g>
		<g>
			<path class="st1" d="M387.4,180.4c-2.4,0-4.7-1.2-6-3.5c-1.9-3.3-0.8-7.6,2.5-9.5l20.5-11.8c3.3-1.9,7.6-0.8,9.5,2.5
				c1.9,3.3,0.8,7.6-2.5,9.5l-20.5,11.8C389.8,180.1,388.6,180.4,387.4,180.4z"/>
		</g>
		<g>
			<path class="st0" d="M330.1,123c-1.2,0-2.4-0.3-3.5-0.9c-3.3-1.9-4.5-6.2-2.5-9.5l11.8-20.5c1.9-3.3,6.2-4.5,9.5-2.5
				c3.3,1.9,4.5,6.2,2.5,9.5l-11.8,20.5C334.8,121.8,332.5,123,330.1,123z"/>
		</g>
	</g>
	<g>
		<path class="st2" d="M251.8,251.5"/>
	</g>
	<path class="st1" d="M351.2,302.1l-75.8-42.6c0.9-2.5,1.3-5.2,1.3-8c0-11.4-7.6-21-18.1-24c0-0.1,0-0.1,0-0.2v-95.1
		c0-3.8-3.1-6.9-6.9-6.9s-6.9,3.1-6.9,6.9v95.1c0,0.1,0,0.1,0,0.2c-10.4,3-18.1,12.6-18.1,24c0,13.8,11.2,25,25,25
		c5.9,0,11.4-2.1,15.7-5.5l77,43.3c1.1,0.6,2.2,0.9,3.4,0.9c2.4,0,4.8-1.3,6.1-3.5C355.8,308.2,354.6,303.9,351.2,302.1z
		 M251.8,262.5c-6.1,0-11.1-5-11.1-11.1c0-6.1,5-11.1,11.1-11.1s11.1,5,11.1,11.1C262.9,257.6,257.9,262.5,251.8,262.5z"/>
</g>
<g>
	<line class="st3" x1="122.1" y1="497" x2="438.3" y2="497"/>
	<line class="st3" x1="33.3" y1="497" x2="99.9" y2="497"/>
	<line class="st3" x1="459.1" y1="497" x2="470.2" y2="497"/>
</g>
</svg>
