<svg width="1600" height="1000" viewBox="0 0 1600 1000" fill="none" xmlns="http://www.w3.org/2000/svg">
  <defs>
    <linearGradient id="bg" x1="200" y1="80" x2="1400" y2="920" gradientUnits="userSpaceOnUse">
      <stop stop-color="#F4F0DF"/>
      <stop offset="1" stop-color="#E9E5D2"/>
    </linearGradient>
    <linearGradient id="panel" x1="100" y1="240" x2="1500" y2="900" gradientUnits="userSpaceOnUse">
      <stop stop-color="#FDFEFE" stop-opacity="0.98"/>
      <stop offset="1" stop-color="#F8FAFC" stop-opacity="0.94"/>
    </linearGradient>
    <linearGradient id="button" x1="0" y1="0" x2="1" y2="1">
      <stop stop-color="#111827"/>
      <stop offset="1" stop-color="#334155"/>
    </linearGradient>
    <filter id="shadow" x="30" y="185" width="1540" height="745" filterUnits="userSpaceOnUse" color-interpolation-filters="sRGB">
      <feFlood flood-opacity="0" result="BackgroundImageFix"/>
      <feColorMatrix in="SourceAlpha" type="matrix" values="0 0 0 0 0 0 0 0 0 0 0 0 0 0 0 0 0 0 127 0" result="hardAlpha"/>
      <feOffset dy="22"/>
      <feGaussianBlur stdDeviation="28"/>
      <feColorMatrix type="matrix" values="0 0 0 0 0.0588235 0 0 0 0 0.0901961 0 0 0 0 0.164706 0 0 0 0.12 0"/>
      <feBlend mode="normal" in2="BackgroundImageFix" result="effect1_dropShadow_0_1"/>
      <feBlend mode="normal" in="SourceGraphic" in2="effect1_dropShadow_0_1" result="shape"/>
    </filter>
  </defs>

  <rect width="1600" height="1000" rx="40" fill="url(#bg)"/>
  <rect x="0" y="0" width="1600" height="118" fill="#111827"/>
  <rect x="0" y="0" width="1600" height="118" fill="url(#button)" fill-opacity="0.1"/>
  <text x="120" y="74" fill="#FFFFFF" font-family="Inter, Arial, sans-serif" font-size="48" font-weight="700">Converter</text>

  <g opacity="0.95">
    <rect x="1030" y="28" width="140" height="58" rx="29" fill="#FFFFFF" fill-opacity="0.16"/>
    <text x="1062" y="67" fill="#FFFFFF" font-family="Inter, Arial, sans-serif" font-size="30" font-weight="600">Units</text>
    <text x="1220" y="67" fill="#FFFFFF" font-family="Inter, Arial, sans-serif" font-size="30" font-weight="500">Currency</text>
    <text x="1452" y="67" fill="#FFFFFF" font-family="Inter, Arial, sans-serif" font-size="30" font-weight="500">Time</text>
  </g>

  <g filter="url(#shadow)">
    <rect x="86" y="218" width="1428" height="600" rx="38" fill="url(#panel)"/>
    <rect x="86.75" y="218.75" width="1426.5" height="598.5" rx="37.25" stroke="#D7DEE8" stroke-opacity="0.9" stroke-width="1.5"/>
  </g>

  <text x="800" y="325" text-anchor="middle" fill="#101828" font-family="Inter, Arial, sans-serif" font-size="66" font-weight="700">Unit Conversion</text>

  <g transform="translate(744 364)">
    <rect x="0" y="0" width="112" height="112" rx="24" fill="#F8FAFC"/>
    <path d="M35 81L78 38" stroke="#111827" stroke-width="8" stroke-linecap="round"/>
    <path d="M23 57L56 24L88 56L55 89L23 57Z" stroke="#111827" stroke-width="5" fill="none"/>
    <path d="M38 42L47 51" stroke="#111827" stroke-width="4" stroke-linecap="round"/>
    <path d="M30 50L39 59" stroke="#111827" stroke-width="4" stroke-linecap="round"/>
    <path d="M72 54L81 63" stroke="#111827" stroke-width="4" stroke-linecap="round"/>
    <path d="M64 62L73 71" stroke="#111827" stroke-width="4" stroke-linecap="round"/>
  </g>

  <g transform="translate(150 515)">
    <text x="0" y="0" fill="#101828" font-family="Inter, Arial, sans-serif" font-size="34" font-weight="600">Select measurement</text>
    <rect x="635" y="-36" width="665" height="64" rx="18" fill="#FFFFFF"/>
    <rect x="635.75" y="-35.25" width="663.5" height="62.5" rx="17.25" stroke="#CBD5E1" stroke-width="1.5"/>
    <text x="870" y="7" fill="#98A2B3" font-family="Inter, Arial, sans-serif" font-size="32" font-weight="600">Length</text>
    <path d="M1238 -2L1255 15L1272 -2" stroke="#98A2B3" stroke-width="4" stroke-linecap="round" stroke-linejoin="round"/>
  </g>

  <g transform="translate(150 622)">
    <text x="0" y="0" fill="#101828" font-family="Inter, Arial, sans-serif" font-size="34" font-weight="600">From</text>
    <rect x="210" y="-38" width="210" height="68" rx="20" fill="#FFFFFF"/>
    <rect x="210.75" y="-37.25" width="208.5" height="66.5" rx="19.25" stroke="#CBD5E1" stroke-width="1.5"/>
    <text x="315" y="7" text-anchor="middle" fill="#98A2B3" font-family="Inter, Arial, sans-serif" font-size="28" font-weight="500">42</text>
    <rect x="635" y="-38" width="665" height="68" rx="20" fill="#FFFFFF"/>
    <rect x="635.75" y="-37.25" width="663.5" height="66.5" rx="19.25" stroke="#CBD5E1" stroke-width="1.5"/>
    <text x="870" y="7" fill="#98A2B3" font-family="Inter, Arial, sans-serif" font-size="32" font-weight="600">Kilometer</text>
    <path d="M1238 -2L1255 15L1272 -2" stroke="#98A2B3" stroke-width="4" stroke-linecap="round" stroke-linejoin="round"/>
  </g>

  <g transform="translate(800 722)">
    <rect x="-122" y="-34" width="244" height="68" rx="22" fill="url(#button)"/>
    <text x="0" y="10" text-anchor="middle" fill="#FFFFFF" font-family="Inter, Arial, sans-serif" font-size="28" font-weight="700">Convert</text>
  </g>

  <g transform="translate(800 822)">
    <path d="M0 -20V32" stroke="#667085" stroke-width="8" stroke-linecap="round"/>
    <path d="M-26 8L0 36L26 8" stroke="#667085" stroke-width="8" stroke-linecap="round" stroke-linejoin="round" fill="none"/>
  </g>

  <g transform="translate(150 910)">
    <text x="0" y="0" fill="#101828" font-family="Inter, Arial, sans-serif" font-size="34" font-weight="600">To</text>
    <rect x="635" y="-38" width="665" height="68" rx="20" fill="#FFFFFF"/>
    <rect x="635.75" y="-37.25" width="663.5" height="66.5" rx="19.25" stroke="#CBD5E1" stroke-width="1.5"/>
    <text x="870" y="7" fill="#98A2B3" font-family="Inter, Arial, sans-serif" font-size="32" font-weight="600">Meter</text>
    <path d="M1238 -2L1255 15L1272 -2" stroke="#98A2B3" stroke-width="4" stroke-linecap="round" stroke-linejoin="round"/>
  </g>
</svg>
